<?xml version="1.0" encoding="utf-8"?>
<!-- Generator: Adobe Illustrator 18.1.1, SVG Export Plug-In . SVG Version: 6.00 Build 0)  -->
<!DOCTYPE svg PUBLIC "-//W3C//DTD SVG 1.1//EN" "http://www.w3.org/Graphics/SVG/1.1/DTD/svg11.dtd">
<svg version="1.1" id="Layer_1" xmlns="http://www.w3.org/2000/svg" xmlns:xlink="http://www.w3.org/1999/xlink" x="0px" y="0px"
	 width="40px" height="40px" viewBox="20 20 40 40" enable-background="new 20 20 40 40" xml:space="preserve">
<path fill="#5D5E61" d="M53.1,30L30.5,53.7c-1,1-2.7,1.1-3.7,0.1l0,0c-1-1-1.1-2.7-0.1-3.7l22.6-23.7c1-1,2.7-1.1,3.7-0.1l0,0
	C54,27.3,54.1,29,53.1,30z"/>
<path fill="#5D5E61" d="M31.4,26.4l21.9,24.1c1,1.1,0.9,2.7-0.2,3.7l0,0c-1.1,1-2.7,0.9-3.7-0.2L27.5,30c-1-1.1-0.9-2.7,0.2-3.7l0,0
	C28.8,25.3,30.5,25.3,31.4,26.4z"/>
</svg>
