<?xml version="1.0" encoding="utf-8"?>
<!-- Generator: Adobe Illustrator 19.1.0, SVG Export Plug-In . SVG Version: 6.00 Build 0)  -->
<!DOCTYPE svg PUBLIC "-//W3C//DTD SVG 1.1//EN" "http://www.w3.org/Graphics/SVG/1.1/DTD/svg11.dtd">
<svg version="1.1" id="Layer_1" xmlns="http://www.w3.org/2000/svg" xmlns:xlink="http://www.w3.org/1999/xlink" x="0px" y="0px"
	 width="40px" height="40px" viewBox="-459 261 40 40" style="enable-background:new -459 261 40 40;" xml:space="preserve">
<g>
	<path d="M-427,281.5h-24c-1.3,0-2.4-1.1-2.4-2.4v-0.7c0-1.3,1.1-2.4,2.4-2.4h24c1.3,0,2.4,1.1,2.4,2.4v0.7
		C-424.6,280.4-425.7,281.5-427,281.5z"/>
	<path d="M-427,270.9h-24c-1.3,0-2.4-1.1-2.4-2.4v-0.7c0-1.3,1.1-2.4,2.4-2.4h24c1.3,0,2.4,1.1,2.4,2.4v0.7
		C-424.6,269.8-425.7,270.9-427,270.9z"/>
	<path d="M-427,292.5h-24c-1.3,0-2.4-1.1-2.4-2.4v-0.7c0-1.3,1.1-2.4,2.4-2.4h24c1.3,0,2.4,1.1,2.4,2.4v0.7
		C-424.6,291.5-425.7,292.5-427,292.5z"/>
</g>
</svg>
